<mxfile host="app.diagrams.net" agent="Mozilla/5.0 (Windows NT 10.0; Win64; x64) AppleWebKit/537.36 (KHTML, like Gecko) Chrome/137.0.0.0 Safari/537.36 Edg/137.0.0.0" version="27.1.6">
  <diagram id="C5RBs43oDa-KdzZeNtuy" name="Page-1">
    <mxGraphModel dx="461" dy="1496" grid="1" gridSize="10" guides="1" tooltips="1" connect="1" arrows="1" fold="1" page="1" pageScale="1" pageWidth="827" pageHeight="1169" math="0" shadow="0">
      <root>
        <mxCell id="WIyWlLk6GJQsqaUBKTNV-0" />
        <mxCell id="WIyWlLk6GJQsqaUBKTNV-1" parent="WIyWlLk6GJQsqaUBKTNV-0" />
        <mxCell id="pmfcGwgIa4C5hmEtUkiJ-48" value="Product" style="swimlane;fontStyle=0;childLayout=stackLayout;horizontal=1;startSize=30;horizontalStack=0;resizeParent=1;resizeParentMax=0;resizeLast=0;collapsible=1;marginBottom=0;whiteSpace=wrap;html=1;strokeColor=#E07A5F;fontColor=#393C56;fillColor=#F2CC8F;" vertex="1" parent="WIyWlLk6GJQsqaUBKTNV-1">
          <mxGeometry x="540" y="-70" width="250" height="308" as="geometry" />
        </mxCell>
        <mxCell id="pmfcGwgIa4C5hmEtUkiJ-49" value="ProductID : int&lt;span style=&quot;white-space: pre;&quot;&gt;&#x9;&lt;/span&gt;" style="text;strokeColor=none;fillColor=none;align=left;verticalAlign=middle;spacingLeft=4;spacingRight=4;overflow=hidden;points=[[0,0.5],[1,0.5]];portConstraint=eastwest;rotatable=0;whiteSpace=wrap;html=1;fontColor=#393C56;" vertex="1" parent="pmfcGwgIa4C5hmEtUkiJ-48">
          <mxGeometry y="30" width="250" height="30" as="geometry" />
        </mxCell>
        <mxCell id="pmfcGwgIa4C5hmEtUkiJ-50" value="ProductName : String" style="text;strokeColor=none;fillColor=none;align=left;verticalAlign=middle;spacingLeft=4;spacingRight=4;overflow=hidden;points=[[0,0.5],[1,0.5]];portConstraint=eastwest;rotatable=0;whiteSpace=wrap;html=1;fontColor=#393C56;" vertex="1" parent="pmfcGwgIa4C5hmEtUkiJ-48">
          <mxGeometry y="60" width="250" height="30" as="geometry" />
        </mxCell>
        <mxCell id="pmfcGwgIa4C5hmEtUkiJ-51" value="ImagePathProduct : String&amp;nbsp;" style="text;strokeColor=none;fillColor=none;align=left;verticalAlign=middle;spacingLeft=4;spacingRight=4;overflow=hidden;points=[[0,0.5],[1,0.5]];portConstraint=eastwest;rotatable=0;whiteSpace=wrap;html=1;fontColor=#393C56;" vertex="1" parent="pmfcGwgIa4C5hmEtUkiJ-48">
          <mxGeometry y="90" width="250" height="30" as="geometry" />
        </mxCell>
        <mxCell id="pmfcGwgIa4C5hmEtUkiJ-56" value="CategoryID : int" style="text;strokeColor=none;fillColor=none;align=left;verticalAlign=middle;spacingLeft=4;spacingRight=4;overflow=hidden;points=[[0,0.5],[1,0.5]];portConstraint=eastwest;rotatable=0;whiteSpace=wrap;html=1;fontColor=#393C56;" vertex="1" parent="pmfcGwgIa4C5hmEtUkiJ-48">
          <mxGeometry y="120" width="250" height="30" as="geometry" />
        </mxCell>
        <mxCell id="pmfcGwgIa4C5hmEtUkiJ-57" value="CreateAt : DateTime" style="text;strokeColor=none;fillColor=none;align=left;verticalAlign=middle;spacingLeft=4;spacingRight=4;overflow=hidden;points=[[0,0.5],[1,0.5]];portConstraint=eastwest;rotatable=0;whiteSpace=wrap;html=1;fontColor=#393C56;" vertex="1" parent="pmfcGwgIa4C5hmEtUkiJ-48">
          <mxGeometry y="150" width="250" height="30" as="geometry" />
        </mxCell>
        <mxCell id="pmfcGwgIa4C5hmEtUkiJ-58" value="UpdateAt : DateTime" style="text;strokeColor=none;fillColor=none;align=left;verticalAlign=middle;spacingLeft=4;spacingRight=4;overflow=hidden;points=[[0,0.5],[1,0.5]];portConstraint=eastwest;rotatable=0;whiteSpace=wrap;html=1;fontColor=#393C56;" vertex="1" parent="pmfcGwgIa4C5hmEtUkiJ-48">
          <mxGeometry y="180" width="250" height="30" as="geometry" />
        </mxCell>
        <mxCell id="pmfcGwgIa4C5hmEtUkiJ-59" value="VariantID : int" style="text;strokeColor=none;fillColor=none;align=left;verticalAlign=middle;spacingLeft=4;spacingRight=4;overflow=hidden;points=[[0,0.5],[1,0.5]];portConstraint=eastwest;rotatable=0;whiteSpace=wrap;html=1;fontColor=#393C56;" vertex="1" parent="pmfcGwgIa4C5hmEtUkiJ-48">
          <mxGeometry y="210" width="250" height="30" as="geometry" />
        </mxCell>
        <mxCell id="pmfcGwgIa4C5hmEtUkiJ-63" value="" style="line;html=1;strokeWidth=1;align=left;verticalAlign=middle;spacingTop=-1;spacingLeft=3;spacingRight=3;rotatable=0;labelPosition=right;points=[];portConstraint=eastwest;labelBackgroundColor=none;fillColor=#F2CC8F;strokeColor=#E07A5F;fontColor=#393C56;" vertex="1" parent="pmfcGwgIa4C5hmEtUkiJ-48">
          <mxGeometry y="240" width="250" height="8" as="geometry" />
        </mxCell>
        <mxCell id="pmfcGwgIa4C5hmEtUkiJ-64" value="Category : Category" style="text;strokeColor=none;fillColor=none;align=left;verticalAlign=middle;spacingLeft=4;spacingRight=4;overflow=hidden;points=[[0,0.5],[1,0.5]];portConstraint=eastwest;rotatable=0;whiteSpace=wrap;html=1;fontColor=#393C56;" vertex="1" parent="pmfcGwgIa4C5hmEtUkiJ-48">
          <mxGeometry y="248" width="250" height="30" as="geometry" />
        </mxCell>
        <mxCell id="pmfcGwgIa4C5hmEtUkiJ-65" value="ProductVariants : List&amp;lt;ProductVariants&amp;gt;" style="text;strokeColor=none;fillColor=none;align=left;verticalAlign=middle;spacingLeft=4;spacingRight=4;overflow=hidden;points=[[0,0.5],[1,0.5]];portConstraint=eastwest;rotatable=0;whiteSpace=wrap;html=1;fontColor=#393C56;" vertex="1" parent="pmfcGwgIa4C5hmEtUkiJ-48">
          <mxGeometry y="278" width="250" height="30" as="geometry" />
        </mxCell>
        <mxCell id="zkfFHV4jXpPFQw0GAbJ--0" value="Person" style="swimlane;fontStyle=2;align=center;verticalAlign=top;childLayout=stackLayout;horizontal=1;startSize=26;horizontalStack=0;resizeParent=1;resizeLast=0;collapsible=1;marginBottom=0;rounded=0;shadow=0;strokeWidth=1;labelBackgroundColor=none;fillColor=#F2CC8F;strokeColor=#E07A5F;fontColor=#393C56;" parent="WIyWlLk6GJQsqaUBKTNV-1" vertex="1">
          <mxGeometry x="90" y="-170" width="150" height="530" as="geometry">
            <mxRectangle x="90" y="-170" width="160" height="30" as="alternateBounds" />
          </mxGeometry>
        </mxCell>
        <mxCell id="zkfFHV4jXpPFQw0GAbJ--1" value="Id : int" style="text;align=left;verticalAlign=top;spacingLeft=4;spacingRight=4;overflow=hidden;rotatable=0;points=[[0,0.5],[1,0.5]];portConstraint=eastwest;labelBackgroundColor=none;fontColor=#393C56;" parent="zkfFHV4jXpPFQw0GAbJ--0" vertex="1">
          <mxGeometry y="26" width="150" height="26" as="geometry" />
        </mxCell>
        <mxCell id="pmfcGwgIa4C5hmEtUkiJ-35" value="UserName : String" style="text;align=left;verticalAlign=top;spacingLeft=4;spacingRight=4;overflow=hidden;rotatable=0;points=[[0,0.5],[1,0.5]];portConstraint=eastwest;rounded=0;shadow=0;html=0;labelBackgroundColor=none;fontColor=#393C56;" vertex="1" parent="zkfFHV4jXpPFQw0GAbJ--0">
          <mxGeometry y="52" width="150" height="32" as="geometry" />
        </mxCell>
        <mxCell id="pmfcGwgIa4C5hmEtUkiJ-36" value="Password : String" style="text;align=left;verticalAlign=top;spacingLeft=4;spacingRight=4;overflow=hidden;rotatable=0;points=[[0,0.5],[1,0.5]];portConstraint=eastwest;rounded=0;shadow=0;html=0;labelBackgroundColor=none;fontColor=#393C56;" vertex="1" parent="zkfFHV4jXpPFQw0GAbJ--0">
          <mxGeometry y="84" width="150" height="32" as="geometry" />
        </mxCell>
        <mxCell id="pmfcGwgIa4C5hmEtUkiJ-23" value="FName: String " style="text;align=left;verticalAlign=top;spacingLeft=4;spacingRight=4;overflow=hidden;rotatable=0;points=[[0,0.5],[1,0.5]];portConstraint=eastwest;rounded=0;shadow=0;html=0;labelBackgroundColor=none;fontColor=#393C56;" vertex="1" parent="zkfFHV4jXpPFQw0GAbJ--0">
          <mxGeometry y="116" width="150" height="30" as="geometry" />
        </mxCell>
        <mxCell id="pmfcGwgIa4C5hmEtUkiJ-24" value="LName : String" style="text;align=left;verticalAlign=top;spacingLeft=4;spacingRight=4;overflow=hidden;rotatable=0;points=[[0,0.5],[1,0.5]];portConstraint=eastwest;rounded=0;shadow=0;html=0;labelBackgroundColor=none;fontColor=#393C56;" vertex="1" parent="zkfFHV4jXpPFQw0GAbJ--0">
          <mxGeometry y="146" width="150" height="32" as="geometry" />
        </mxCell>
        <mxCell id="pmfcGwgIa4C5hmEtUkiJ-25" value="Gender : String" style="text;align=left;verticalAlign=top;spacingLeft=4;spacingRight=4;overflow=hidden;rotatable=0;points=[[0,0.5],[1,0.5]];portConstraint=eastwest;rounded=0;shadow=0;html=0;labelBackgroundColor=none;fontColor=#393C56;" vertex="1" parent="zkfFHV4jXpPFQw0GAbJ--0">
          <mxGeometry y="178" width="150" height="32" as="geometry" />
        </mxCell>
        <mxCell id="pmfcGwgIa4C5hmEtUkiJ-32" value="Age : int" style="text;align=left;verticalAlign=top;spacingLeft=4;spacingRight=4;overflow=hidden;rotatable=0;points=[[0,0.5],[1,0.5]];portConstraint=eastwest;rounded=0;shadow=0;html=0;labelBackgroundColor=none;fontColor=#393C56;" vertex="1" parent="zkfFHV4jXpPFQw0GAbJ--0">
          <mxGeometry y="210" width="150" height="32" as="geometry" />
        </mxCell>
        <mxCell id="zkfFHV4jXpPFQw0GAbJ--2" value="Phone Number :String" style="text;align=left;verticalAlign=top;spacingLeft=4;spacingRight=4;overflow=hidden;rotatable=0;points=[[0,0.5],[1,0.5]];portConstraint=eastwest;rounded=0;shadow=0;html=0;labelBackgroundColor=none;fontColor=#393C56;" parent="zkfFHV4jXpPFQw0GAbJ--0" vertex="1">
          <mxGeometry y="242" width="150" height="26" as="geometry" />
        </mxCell>
        <mxCell id="zkfFHV4jXpPFQw0GAbJ--3" value="Email : String" style="text;align=left;verticalAlign=top;spacingLeft=4;spacingRight=4;overflow=hidden;rotatable=0;points=[[0,0.5],[1,0.5]];portConstraint=eastwest;rounded=0;shadow=0;html=0;labelBackgroundColor=none;fontColor=#393C56;" parent="zkfFHV4jXpPFQw0GAbJ--0" vertex="1">
          <mxGeometry y="268" width="150" height="32" as="geometry" />
        </mxCell>
        <mxCell id="pmfcGwgIa4C5hmEtUkiJ-26" value="Address : String " style="text;align=left;verticalAlign=top;spacingLeft=4;spacingRight=4;overflow=hidden;rotatable=0;points=[[0,0.5],[1,0.5]];portConstraint=eastwest;rounded=0;shadow=0;html=0;labelBackgroundColor=none;fontColor=#393C56;" vertex="1" parent="zkfFHV4jXpPFQw0GAbJ--0">
          <mxGeometry y="300" width="150" height="32" as="geometry" />
        </mxCell>
        <mxCell id="pmfcGwgIa4C5hmEtUkiJ-27" value="DateOfBirth : dateTime" style="text;align=left;verticalAlign=top;spacingLeft=4;spacingRight=4;overflow=hidden;rotatable=0;points=[[0,0.5],[1,0.5]];portConstraint=eastwest;rounded=0;shadow=0;html=0;labelBackgroundColor=none;fontColor=#393C56;" vertex="1" parent="zkfFHV4jXpPFQw0GAbJ--0">
          <mxGeometry y="332" width="150" height="32" as="geometry" />
        </mxCell>
        <mxCell id="pmfcGwgIa4C5hmEtUkiJ-28" value="PathImagePerson : String" style="text;align=left;verticalAlign=top;spacingLeft=4;spacingRight=4;overflow=hidden;rotatable=0;points=[[0,0.5],[1,0.5]];portConstraint=eastwest;rounded=0;shadow=0;html=0;labelBackgroundColor=none;fontColor=#393C56;" vertex="1" parent="zkfFHV4jXpPFQw0GAbJ--0">
          <mxGeometry y="364" width="150" height="32" as="geometry" />
        </mxCell>
        <mxCell id="pmfcGwgIa4C5hmEtUkiJ-29" value="RoleAccount : String" style="text;align=left;verticalAlign=top;spacingLeft=4;spacingRight=4;overflow=hidden;rotatable=0;points=[[0,0.5],[1,0.5]];portConstraint=eastwest;rounded=0;shadow=0;html=0;labelBackgroundColor=none;fontColor=#393C56;" vertex="1" parent="zkfFHV4jXpPFQw0GAbJ--0">
          <mxGeometry y="396" width="150" height="32" as="geometry" />
        </mxCell>
        <mxCell id="pmfcGwgIa4C5hmEtUkiJ-30" value="Balance: demical" style="text;align=left;verticalAlign=top;spacingLeft=4;spacingRight=4;overflow=hidden;rotatable=0;points=[[0,0.5],[1,0.5]];portConstraint=eastwest;rounded=0;shadow=0;html=0;labelBackgroundColor=none;fontColor=#393C56;" vertex="1" parent="zkfFHV4jXpPFQw0GAbJ--0">
          <mxGeometry y="428" width="150" height="32" as="geometry" />
        </mxCell>
        <mxCell id="zkfFHV4jXpPFQw0GAbJ--4" value="" style="line;html=1;strokeWidth=1;align=left;verticalAlign=middle;spacingTop=-1;spacingLeft=3;spacingRight=3;rotatable=0;labelPosition=right;points=[];portConstraint=eastwest;labelBackgroundColor=none;fillColor=#F2CC8F;strokeColor=#E07A5F;fontColor=#393C56;" parent="zkfFHV4jXpPFQw0GAbJ--0" vertex="1">
          <mxGeometry y="460" width="150" height="6" as="geometry" />
        </mxCell>
        <mxCell id="pmfcGwgIa4C5hmEtUkiJ-37" value="Carts: List&lt;Cart&gt;" style="text;align=left;verticalAlign=top;spacingLeft=4;spacingRight=4;overflow=hidden;rotatable=0;points=[[0,0.5],[1,0.5]];portConstraint=eastwest;rounded=0;shadow=0;html=0;labelBackgroundColor=none;fontColor=#393C56;" vertex="1" parent="zkfFHV4jXpPFQw0GAbJ--0">
          <mxGeometry y="466" width="150" height="32" as="geometry" />
        </mxCell>
        <mxCell id="pmfcGwgIa4C5hmEtUkiJ-38" value="Orders: List&lt;Orders&gt;" style="text;align=left;verticalAlign=top;spacingLeft=4;spacingRight=4;overflow=hidden;rotatable=0;points=[[0,0.5],[1,0.5]];portConstraint=eastwest;rounded=0;shadow=0;html=0;labelBackgroundColor=none;fontColor=#393C56;" vertex="1" parent="zkfFHV4jXpPFQw0GAbJ--0">
          <mxGeometry y="498" width="150" height="32" as="geometry" />
        </mxCell>
        <mxCell id="zkfFHV4jXpPFQw0GAbJ--6" value="Cart" style="swimlane;fontStyle=0;align=center;verticalAlign=top;childLayout=stackLayout;horizontal=1;startSize=26;horizontalStack=0;resizeParent=1;resizeLast=0;collapsible=1;marginBottom=0;rounded=0;shadow=0;strokeWidth=1;labelBackgroundColor=none;fillColor=#F2CC8F;strokeColor=#E07A5F;fontColor=#393C56;" parent="WIyWlLk6GJQsqaUBKTNV-1" vertex="1">
          <mxGeometry x="80" y="480" width="160" height="190" as="geometry">
            <mxRectangle x="130" y="380" width="160" height="26" as="alternateBounds" />
          </mxGeometry>
        </mxCell>
        <mxCell id="zkfFHV4jXpPFQw0GAbJ--7" value="CartId : int" style="text;align=left;verticalAlign=top;spacingLeft=4;spacingRight=4;overflow=hidden;rotatable=0;points=[[0,0.5],[1,0.5]];portConstraint=eastwest;labelBackgroundColor=none;fontColor=#393C56;" parent="zkfFHV4jXpPFQw0GAbJ--6" vertex="1">
          <mxGeometry y="26" width="160" height="26" as="geometry" />
        </mxCell>
        <mxCell id="pmfcGwgIa4C5hmEtUkiJ-39" value="ProductID: int" style="text;align=left;verticalAlign=top;spacingLeft=4;spacingRight=4;overflow=hidden;rotatable=0;points=[[0,0.5],[1,0.5]];portConstraint=eastwest;rounded=0;shadow=0;html=0;labelBackgroundColor=none;fontColor=#393C56;" vertex="1" parent="zkfFHV4jXpPFQw0GAbJ--6">
          <mxGeometry y="52" width="160" height="26" as="geometry" />
        </mxCell>
        <mxCell id="zkfFHV4jXpPFQw0GAbJ--8" value="PersonId : int" style="text;align=left;verticalAlign=top;spacingLeft=4;spacingRight=4;overflow=hidden;rotatable=0;points=[[0,0.5],[1,0.5]];portConstraint=eastwest;rounded=0;shadow=0;html=0;labelBackgroundColor=none;fontColor=#393C56;" parent="zkfFHV4jXpPFQw0GAbJ--6" vertex="1">
          <mxGeometry y="78" width="160" height="26" as="geometry" />
        </mxCell>
        <mxCell id="pmfcGwgIa4C5hmEtUkiJ-40" value="Quantity : int" style="text;align=left;verticalAlign=top;spacingLeft=4;spacingRight=4;overflow=hidden;rotatable=0;points=[[0,0.5],[1,0.5]];portConstraint=eastwest;rounded=0;shadow=0;html=0;labelBackgroundColor=none;fontColor=#393C56;" vertex="1" parent="zkfFHV4jXpPFQw0GAbJ--6">
          <mxGeometry y="104" width="160" height="26" as="geometry" />
        </mxCell>
        <mxCell id="zkfFHV4jXpPFQw0GAbJ--9" value="" style="line;html=1;strokeWidth=1;align=left;verticalAlign=middle;spacingTop=-1;spacingLeft=3;spacingRight=3;rotatable=0;labelPosition=right;points=[];portConstraint=eastwest;labelBackgroundColor=none;fillColor=#F2CC8F;strokeColor=#E07A5F;fontColor=#393C56;" parent="zkfFHV4jXpPFQw0GAbJ--6" vertex="1">
          <mxGeometry y="130" width="160" height="8" as="geometry" />
        </mxCell>
        <mxCell id="zkfFHV4jXpPFQw0GAbJ--10" value="Person : Person" style="text;align=left;verticalAlign=top;spacingLeft=4;spacingRight=4;overflow=hidden;rotatable=0;points=[[0,0.5],[1,0.5]];portConstraint=eastwest;fontStyle=0;labelBackgroundColor=none;fontColor=#393C56;" parent="zkfFHV4jXpPFQw0GAbJ--6" vertex="1">
          <mxGeometry y="138" width="160" height="26" as="geometry" />
        </mxCell>
        <mxCell id="zkfFHV4jXpPFQw0GAbJ--11" value="Product: Product" style="text;align=left;verticalAlign=top;spacingLeft=4;spacingRight=4;overflow=hidden;rotatable=0;points=[[0,0.5],[1,0.5]];portConstraint=eastwest;labelBackgroundColor=none;fontColor=#393C56;" parent="zkfFHV4jXpPFQw0GAbJ--6" vertex="1">
          <mxGeometry y="164" width="160" height="26" as="geometry" />
        </mxCell>
        <mxCell id="zkfFHV4jXpPFQw0GAbJ--13" value="Orders" style="swimlane;fontStyle=0;align=center;verticalAlign=top;childLayout=stackLayout;horizontal=1;startSize=26;horizontalStack=0;resizeParent=1;resizeLast=0;collapsible=1;marginBottom=0;rounded=0;shadow=0;strokeWidth=1;labelBackgroundColor=none;fillColor=#F2CC8F;strokeColor=#E07A5F;fontColor=#393C56;" parent="WIyWlLk6GJQsqaUBKTNV-1" vertex="1">
          <mxGeometry x="350" y="467" width="190" height="216" as="geometry">
            <mxRectangle x="340" y="380" width="170" height="26" as="alternateBounds" />
          </mxGeometry>
        </mxCell>
        <mxCell id="zkfFHV4jXpPFQw0GAbJ--14" value="OrderId : int" style="text;align=left;verticalAlign=top;spacingLeft=4;spacingRight=4;overflow=hidden;rotatable=0;points=[[0,0.5],[1,0.5]];portConstraint=eastwest;labelBackgroundColor=none;fontColor=#393C56;" parent="zkfFHV4jXpPFQw0GAbJ--13" vertex="1">
          <mxGeometry y="26" width="190" height="26" as="geometry" />
        </mxCell>
        <mxCell id="pmfcGwgIa4C5hmEtUkiJ-41" value="PersonId : int" style="text;align=left;verticalAlign=top;spacingLeft=4;spacingRight=4;overflow=hidden;rotatable=0;points=[[0,0.5],[1,0.5]];portConstraint=eastwest;labelBackgroundColor=none;fontColor=#393C56;" vertex="1" parent="zkfFHV4jXpPFQw0GAbJ--13">
          <mxGeometry y="52" width="190" height="26" as="geometry" />
        </mxCell>
        <mxCell id="pmfcGwgIa4C5hmEtUkiJ-42" value="OerderAddress : String" style="text;align=left;verticalAlign=top;spacingLeft=4;spacingRight=4;overflow=hidden;rotatable=0;points=[[0,0.5],[1,0.5]];portConstraint=eastwest;labelBackgroundColor=none;fontColor=#393C56;" vertex="1" parent="zkfFHV4jXpPFQw0GAbJ--13">
          <mxGeometry y="78" width="190" height="26" as="geometry" />
        </mxCell>
        <mxCell id="pmfcGwgIa4C5hmEtUkiJ-43" value="TotalMoney : demical" style="text;align=left;verticalAlign=top;spacingLeft=4;spacingRight=4;overflow=hidden;rotatable=0;points=[[0,0.5],[1,0.5]];portConstraint=eastwest;labelBackgroundColor=none;fontColor=#393C56;" vertex="1" parent="zkfFHV4jXpPFQw0GAbJ--13">
          <mxGeometry y="104" width="190" height="26" as="geometry" />
        </mxCell>
        <mxCell id="pmfcGwgIa4C5hmEtUkiJ-34" value="OrderStatus: String" style="text;align=left;verticalAlign=top;spacingLeft=4;spacingRight=4;overflow=hidden;rotatable=0;points=[[0,0.5],[1,0.5]];portConstraint=eastwest;labelBackgroundColor=none;fontColor=#393C56;" vertex="1" parent="zkfFHV4jXpPFQw0GAbJ--13">
          <mxGeometry y="130" width="190" height="26" as="geometry" />
        </mxCell>
        <mxCell id="zkfFHV4jXpPFQw0GAbJ--15" value="" style="line;html=1;strokeWidth=1;align=left;verticalAlign=middle;spacingTop=-1;spacingLeft=3;spacingRight=3;rotatable=0;labelPosition=right;points=[];portConstraint=eastwest;labelBackgroundColor=none;fillColor=#F2CC8F;strokeColor=#E07A5F;fontColor=#393C56;" parent="zkfFHV4jXpPFQw0GAbJ--13" vertex="1">
          <mxGeometry y="156" width="190" height="8" as="geometry" />
        </mxCell>
        <mxCell id="pmfcGwgIa4C5hmEtUkiJ-45" value="Person : Person" style="text;align=left;verticalAlign=top;spacingLeft=4;spacingRight=4;overflow=hidden;rotatable=0;points=[[0,0.5],[1,0.5]];portConstraint=eastwest;labelBackgroundColor=none;fontColor=#393C56;" vertex="1" parent="zkfFHV4jXpPFQw0GAbJ--13">
          <mxGeometry y="164" width="190" height="26" as="geometry" />
        </mxCell>
        <mxCell id="pmfcGwgIa4C5hmEtUkiJ-46" value="OrderDetails : List&lt;OrderDetails&gt;" style="text;align=left;verticalAlign=top;spacingLeft=4;spacingRight=4;overflow=hidden;rotatable=0;points=[[0,0.5],[1,0.5]];portConstraint=eastwest;labelBackgroundColor=none;fontColor=#393C56;" vertex="1" parent="zkfFHV4jXpPFQw0GAbJ--13">
          <mxGeometry y="190" width="190" height="26" as="geometry" />
        </mxCell>
        <mxCell id="zkfFHV4jXpPFQw0GAbJ--17" value="OrderDetails" style="swimlane;fontStyle=0;align=center;verticalAlign=top;childLayout=stackLayout;horizontal=1;startSize=26;horizontalStack=0;resizeParent=1;resizeLast=0;collapsible=1;marginBottom=0;rounded=0;shadow=0;strokeWidth=1;labelBackgroundColor=none;fillColor=#F2CC8F;strokeColor=#E07A5F;fontColor=#393C56;" parent="WIyWlLk6GJQsqaUBKTNV-1" vertex="1">
          <mxGeometry x="290" y="82" width="160" height="190" as="geometry">
            <mxRectangle x="550" y="140" width="160" height="26" as="alternateBounds" />
          </mxGeometry>
        </mxCell>
        <mxCell id="zkfFHV4jXpPFQw0GAbJ--18" value="OrderDetailId : int" style="text;align=left;verticalAlign=top;spacingLeft=4;spacingRight=4;overflow=hidden;rotatable=0;points=[[0,0.5],[1,0.5]];portConstraint=eastwest;labelBackgroundColor=none;fontColor=#393C56;" parent="zkfFHV4jXpPFQw0GAbJ--17" vertex="1">
          <mxGeometry y="26" width="160" height="26" as="geometry" />
        </mxCell>
        <mxCell id="zkfFHV4jXpPFQw0GAbJ--19" value="OrderId : int" style="text;align=left;verticalAlign=top;spacingLeft=4;spacingRight=4;overflow=hidden;rotatable=0;points=[[0,0.5],[1,0.5]];portConstraint=eastwest;rounded=0;shadow=0;html=0;labelBackgroundColor=none;fontColor=#393C56;" parent="zkfFHV4jXpPFQw0GAbJ--17" vertex="1">
          <mxGeometry y="52" width="160" height="26" as="geometry" />
        </mxCell>
        <mxCell id="zkfFHV4jXpPFQw0GAbJ--20" value="ProductID : int" style="text;align=left;verticalAlign=top;spacingLeft=4;spacingRight=4;overflow=hidden;rotatable=0;points=[[0,0.5],[1,0.5]];portConstraint=eastwest;rounded=0;shadow=0;html=0;labelBackgroundColor=none;fontColor=#393C56;" parent="zkfFHV4jXpPFQw0GAbJ--17" vertex="1">
          <mxGeometry y="78" width="160" height="26" as="geometry" />
        </mxCell>
        <mxCell id="zkfFHV4jXpPFQw0GAbJ--21" value="Quantity : int" style="text;align=left;verticalAlign=top;spacingLeft=4;spacingRight=4;overflow=hidden;rotatable=0;points=[[0,0.5],[1,0.5]];portConstraint=eastwest;rounded=0;shadow=0;html=0;labelBackgroundColor=none;fontColor=#393C56;" parent="zkfFHV4jXpPFQw0GAbJ--17" vertex="1">
          <mxGeometry y="104" width="160" height="26" as="geometry" />
        </mxCell>
        <mxCell id="zkfFHV4jXpPFQw0GAbJ--23" value="" style="line;html=1;strokeWidth=1;align=left;verticalAlign=middle;spacingTop=-1;spacingLeft=3;spacingRight=3;rotatable=0;labelPosition=right;points=[];portConstraint=eastwest;labelBackgroundColor=none;fillColor=#F2CC8F;strokeColor=#E07A5F;fontColor=#393C56;" parent="zkfFHV4jXpPFQw0GAbJ--17" vertex="1">
          <mxGeometry y="130" width="160" height="8" as="geometry" />
        </mxCell>
        <mxCell id="zkfFHV4jXpPFQw0GAbJ--24" value="Order: Oders" style="text;align=left;verticalAlign=top;spacingLeft=4;spacingRight=4;overflow=hidden;rotatable=0;points=[[0,0.5],[1,0.5]];portConstraint=eastwest;labelBackgroundColor=none;fontColor=#393C56;" parent="zkfFHV4jXpPFQw0GAbJ--17" vertex="1">
          <mxGeometry y="138" width="160" height="26" as="geometry" />
        </mxCell>
        <mxCell id="zkfFHV4jXpPFQw0GAbJ--25" value="Product : Product" style="text;align=left;verticalAlign=top;spacingLeft=4;spacingRight=4;overflow=hidden;rotatable=0;points=[[0,0.5],[1,0.5]];portConstraint=eastwest;labelBackgroundColor=none;fontColor=#393C56;" parent="zkfFHV4jXpPFQw0GAbJ--17" vertex="1">
          <mxGeometry y="164" width="160" height="26" as="geometry" />
        </mxCell>
        <mxCell id="pmfcGwgIa4C5hmEtUkiJ-52" value="ProductVariants" style="swimlane;fontStyle=0;childLayout=stackLayout;horizontal=1;startSize=30;horizontalStack=0;resizeParent=1;resizeParentMax=0;resizeLast=0;collapsible=1;marginBottom=0;whiteSpace=wrap;html=1;strokeColor=#E07A5F;fontColor=#393C56;fillColor=#F2CC8F;" vertex="1" parent="WIyWlLk6GJQsqaUBKTNV-1">
          <mxGeometry x="810" y="272" width="140" height="218" as="geometry" />
        </mxCell>
        <mxCell id="pmfcGwgIa4C5hmEtUkiJ-53" value="VariantID : int" style="text;strokeColor=none;fillColor=none;align=left;verticalAlign=middle;spacingLeft=4;spacingRight=4;overflow=hidden;points=[[0,0.5],[1,0.5]];portConstraint=eastwest;rotatable=0;whiteSpace=wrap;html=1;fontColor=#393C56;" vertex="1" parent="pmfcGwgIa4C5hmEtUkiJ-52">
          <mxGeometry y="30" width="140" height="30" as="geometry" />
        </mxCell>
        <mxCell id="pmfcGwgIa4C5hmEtUkiJ-54" value="ProductID : int&amp;nbsp;" style="text;strokeColor=none;fillColor=none;align=left;verticalAlign=middle;spacingLeft=4;spacingRight=4;overflow=hidden;points=[[0,0.5],[1,0.5]];portConstraint=eastwest;rotatable=0;whiteSpace=wrap;html=1;fontColor=#393C56;" vertex="1" parent="pmfcGwgIa4C5hmEtUkiJ-52">
          <mxGeometry y="60" width="140" height="30" as="geometry" />
        </mxCell>
        <mxCell id="pmfcGwgIa4C5hmEtUkiJ-55" value="Storage : String" style="text;strokeColor=none;fillColor=none;align=left;verticalAlign=middle;spacingLeft=4;spacingRight=4;overflow=hidden;points=[[0,0.5],[1,0.5]];portConstraint=eastwest;rotatable=0;whiteSpace=wrap;html=1;fontColor=#393C56;" vertex="1" parent="pmfcGwgIa4C5hmEtUkiJ-52">
          <mxGeometry y="90" width="140" height="30" as="geometry" />
        </mxCell>
        <mxCell id="pmfcGwgIa4C5hmEtUkiJ-66" value="Price : decimal" style="text;strokeColor=none;fillColor=none;align=left;verticalAlign=middle;spacingLeft=4;spacingRight=4;overflow=hidden;points=[[0,0.5],[1,0.5]];portConstraint=eastwest;rotatable=0;whiteSpace=wrap;html=1;fontColor=#393C56;" vertex="1" parent="pmfcGwgIa4C5hmEtUkiJ-52">
          <mxGeometry y="120" width="140" height="30" as="geometry" />
        </mxCell>
        <mxCell id="pmfcGwgIa4C5hmEtUkiJ-67" value="Stock : int&amp;nbsp;" style="text;strokeColor=none;fillColor=none;align=left;verticalAlign=middle;spacingLeft=4;spacingRight=4;overflow=hidden;points=[[0,0.5],[1,0.5]];portConstraint=eastwest;rotatable=0;whiteSpace=wrap;html=1;fontColor=#393C56;" vertex="1" parent="pmfcGwgIa4C5hmEtUkiJ-52">
          <mxGeometry y="150" width="140" height="30" as="geometry" />
        </mxCell>
        <mxCell id="pmfcGwgIa4C5hmEtUkiJ-68" value="" style="line;html=1;strokeWidth=1;align=left;verticalAlign=middle;spacingTop=-1;spacingLeft=3;spacingRight=3;rotatable=0;labelPosition=right;points=[];portConstraint=eastwest;labelBackgroundColor=none;fillColor=#F2CC8F;strokeColor=#E07A5F;fontColor=#393C56;" vertex="1" parent="pmfcGwgIa4C5hmEtUkiJ-52">
          <mxGeometry y="180" width="140" height="8" as="geometry" />
        </mxCell>
        <mxCell id="pmfcGwgIa4C5hmEtUkiJ-69" value="Product : Product" style="text;strokeColor=none;fillColor=none;align=left;verticalAlign=middle;spacingLeft=4;spacingRight=4;overflow=hidden;points=[[0,0.5],[1,0.5]];portConstraint=eastwest;rotatable=0;whiteSpace=wrap;html=1;fontColor=#393C56;" vertex="1" parent="pmfcGwgIa4C5hmEtUkiJ-52">
          <mxGeometry y="188" width="140" height="30" as="geometry" />
        </mxCell>
        <mxCell id="pmfcGwgIa4C5hmEtUkiJ-70" value="Category" style="swimlane;fontStyle=0;align=center;verticalAlign=top;childLayout=stackLayout;horizontal=1;startSize=26;horizontalStack=0;resizeParent=1;resizeLast=0;collapsible=1;marginBottom=0;rounded=0;shadow=0;strokeWidth=1;labelBackgroundColor=none;fillColor=#F2CC8F;strokeColor=#E07A5F;fontColor=#393C56;" vertex="1" parent="WIyWlLk6GJQsqaUBKTNV-1">
          <mxGeometry x="510" y="300" width="160" height="120" as="geometry">
            <mxRectangle x="550" y="140" width="160" height="26" as="alternateBounds" />
          </mxGeometry>
        </mxCell>
        <mxCell id="pmfcGwgIa4C5hmEtUkiJ-71" value="CategoryID :int" style="text;align=left;verticalAlign=top;spacingLeft=4;spacingRight=4;overflow=hidden;rotatable=0;points=[[0,0.5],[1,0.5]];portConstraint=eastwest;labelBackgroundColor=none;fontColor=#393C56;" vertex="1" parent="pmfcGwgIa4C5hmEtUkiJ-70">
          <mxGeometry y="26" width="160" height="26" as="geometry" />
        </mxCell>
        <mxCell id="pmfcGwgIa4C5hmEtUkiJ-74" value="CategoryName : String" style="text;align=left;verticalAlign=top;spacingLeft=4;spacingRight=4;overflow=hidden;rotatable=0;points=[[0,0.5],[1,0.5]];portConstraint=eastwest;rounded=0;shadow=0;html=0;labelBackgroundColor=none;fontColor=#393C56;" vertex="1" parent="pmfcGwgIa4C5hmEtUkiJ-70">
          <mxGeometry y="52" width="160" height="26" as="geometry" />
        </mxCell>
        <mxCell id="pmfcGwgIa4C5hmEtUkiJ-75" value="" style="line;html=1;strokeWidth=1;align=left;verticalAlign=middle;spacingTop=-1;spacingLeft=3;spacingRight=3;rotatable=0;labelPosition=right;points=[];portConstraint=eastwest;labelBackgroundColor=none;fillColor=#F2CC8F;strokeColor=#E07A5F;fontColor=#393C56;" vertex="1" parent="pmfcGwgIa4C5hmEtUkiJ-70">
          <mxGeometry y="78" width="160" height="8" as="geometry" />
        </mxCell>
        <mxCell id="pmfcGwgIa4C5hmEtUkiJ-76" value="Products : List&lt;Product&gt;" style="text;align=left;verticalAlign=top;spacingLeft=4;spacingRight=4;overflow=hidden;rotatable=0;points=[[0,0.5],[1,0.5]];portConstraint=eastwest;labelBackgroundColor=none;fontColor=#393C56;" vertex="1" parent="pmfcGwgIa4C5hmEtUkiJ-70">
          <mxGeometry y="86" width="160" height="26" as="geometry" />
        </mxCell>
        <mxCell id="pmfcGwgIa4C5hmEtUkiJ-87" value="" style="endArrow=none;html=1;rounded=0;strokeColor=#E07A5F;fontSize=12;fontColor=#393C56;startSize=8;endSize=8;curved=1;fillColor=#F2CC8F;startFill=0;entryX=0.5;entryY=0;entryDx=0;entryDy=0;exitX=0.502;exitY=1.018;exitDx=0;exitDy=0;exitPerimeter=0;" edge="1" parent="WIyWlLk6GJQsqaUBKTNV-1" source="pmfcGwgIa4C5hmEtUkiJ-38" target="zkfFHV4jXpPFQw0GAbJ--6">
          <mxGeometry relative="1" as="geometry">
            <mxPoint x="120" y="380" as="sourcePoint" />
            <mxPoint x="245" y="410" as="targetPoint" />
          </mxGeometry>
        </mxCell>
        <mxCell id="pmfcGwgIa4C5hmEtUkiJ-89" value="+1" style="edgeLabel;resizable=0;html=1;;align=left;verticalAlign=bottom;strokeColor=#E07A5F;fontColor=#393C56;fillColor=#F2CC8F;" connectable="0" vertex="1" parent="pmfcGwgIa4C5hmEtUkiJ-87">
          <mxGeometry x="-1" relative="1" as="geometry">
            <mxPoint x="10" y="20" as="offset" />
          </mxGeometry>
        </mxCell>
        <mxCell id="pmfcGwgIa4C5hmEtUkiJ-90" value="+1 ... *" style="edgeLabel;resizable=0;html=1;;align=right;verticalAlign=bottom;strokeColor=#E07A5F;fontColor=#393C56;fillColor=#F2CC8F;" connectable="0" vertex="1" parent="pmfcGwgIa4C5hmEtUkiJ-87">
          <mxGeometry x="1" relative="1" as="geometry" />
        </mxCell>
        <mxCell id="pmfcGwgIa4C5hmEtUkiJ-92" value="" style="endArrow=none;html=1;rounded=0;strokeColor=#E07A5F;fontSize=12;fontColor=#393C56;startSize=8;endSize=8;curved=1;fillColor=#F2CC8F;startFill=0;entryX=-0.002;entryY=0.093;entryDx=0;entryDy=0;exitX=1.005;exitY=0.696;exitDx=0;exitDy=0;exitPerimeter=0;entryPerimeter=0;" edge="1" parent="WIyWlLk6GJQsqaUBKTNV-1" source="pmfcGwgIa4C5hmEtUkiJ-29" target="zkfFHV4jXpPFQw0GAbJ--13">
          <mxGeometry relative="1" as="geometry">
            <mxPoint x="170" y="361" as="sourcePoint" />
            <mxPoint x="170" y="490" as="targetPoint" />
          </mxGeometry>
        </mxCell>
        <mxCell id="pmfcGwgIa4C5hmEtUkiJ-93" value="+1" style="edgeLabel;resizable=0;html=1;;align=left;verticalAlign=bottom;strokeColor=#E07A5F;fontColor=#393C56;fillColor=#F2CC8F;" connectable="0" vertex="1" parent="pmfcGwgIa4C5hmEtUkiJ-92">
          <mxGeometry x="-1" relative="1" as="geometry">
            <mxPoint x="10" y="20" as="offset" />
          </mxGeometry>
        </mxCell>
        <mxCell id="pmfcGwgIa4C5hmEtUkiJ-94" value="+0...*" style="edgeLabel;resizable=0;html=1;;align=right;verticalAlign=bottom;strokeColor=#E07A5F;fontColor=#393C56;fillColor=#F2CC8F;" connectable="0" vertex="1" parent="pmfcGwgIa4C5hmEtUkiJ-92">
          <mxGeometry x="1" relative="1" as="geometry">
            <mxPoint x="1" as="offset" />
          </mxGeometry>
        </mxCell>
        <mxCell id="pmfcGwgIa4C5hmEtUkiJ-95" value="" style="endArrow=none;html=1;rounded=0;strokeColor=#E07A5F;fontSize=12;fontColor=#393C56;startSize=8;endSize=8;curved=1;fillColor=#F2CC8F;startFill=0;entryX=0.49;entryY=1.134;entryDx=0;entryDy=0;entryPerimeter=0;exitX=0.5;exitY=0;exitDx=0;exitDy=0;" edge="1" parent="WIyWlLk6GJQsqaUBKTNV-1" source="zkfFHV4jXpPFQw0GAbJ--13" target="zkfFHV4jXpPFQw0GAbJ--25">
          <mxGeometry relative="1" as="geometry">
            <mxPoint x="400" y="190" as="sourcePoint" />
            <mxPoint x="360" y="246" as="targetPoint" />
          </mxGeometry>
        </mxCell>
        <mxCell id="pmfcGwgIa4C5hmEtUkiJ-96" value="+1" style="edgeLabel;resizable=0;html=1;;align=left;verticalAlign=bottom;strokeColor=#E07A5F;fontColor=#393C56;fillColor=#F2CC8F;" connectable="0" vertex="1" parent="pmfcGwgIa4C5hmEtUkiJ-95">
          <mxGeometry x="-1" relative="1" as="geometry">
            <mxPoint y="-4" as="offset" />
          </mxGeometry>
        </mxCell>
        <mxCell id="pmfcGwgIa4C5hmEtUkiJ-97" value="+1...*" style="edgeLabel;resizable=0;html=1;;align=right;verticalAlign=bottom;strokeColor=#E07A5F;fontColor=#393C56;fillColor=#F2CC8F;" connectable="0" vertex="1" parent="pmfcGwgIa4C5hmEtUkiJ-95">
          <mxGeometry x="1" relative="1" as="geometry">
            <mxPoint x="42" y="17" as="offset" />
          </mxGeometry>
        </mxCell>
        <mxCell id="pmfcGwgIa4C5hmEtUkiJ-98" value="" style="endArrow=none;html=1;rounded=0;strokeColor=#E07A5F;fontSize=12;fontColor=#393C56;startSize=8;endSize=8;curved=1;fillColor=#F2CC8F;startFill=0;entryX=1;entryY=0.5;entryDx=0;entryDy=0;exitX=-0.011;exitY=0.071;exitDx=0;exitDy=0;exitPerimeter=0;" edge="1" parent="WIyWlLk6GJQsqaUBKTNV-1" source="pmfcGwgIa4C5hmEtUkiJ-48" target="zkfFHV4jXpPFQw0GAbJ--18">
          <mxGeometry relative="1" as="geometry">
            <mxPoint x="517" y="-39" as="sourcePoint" />
            <mxPoint x="470" y="-130" as="targetPoint" />
          </mxGeometry>
        </mxCell>
        <mxCell id="pmfcGwgIa4C5hmEtUkiJ-99" value="+1" style="edgeLabel;resizable=0;html=1;;align=left;verticalAlign=bottom;strokeColor=#E07A5F;fontColor=#393C56;fillColor=#F2CC8F;" connectable="0" vertex="1" parent="pmfcGwgIa4C5hmEtUkiJ-98">
          <mxGeometry x="-1" relative="1" as="geometry">
            <mxPoint x="-17" y="8" as="offset" />
          </mxGeometry>
        </mxCell>
        <mxCell id="pmfcGwgIa4C5hmEtUkiJ-100" value="+0...*" style="edgeLabel;resizable=0;html=1;;align=right;verticalAlign=bottom;strokeColor=#E07A5F;fontColor=#393C56;fillColor=#F2CC8F;" connectable="0" vertex="1" parent="pmfcGwgIa4C5hmEtUkiJ-98">
          <mxGeometry x="1" relative="1" as="geometry">
            <mxPoint x="42" y="1" as="offset" />
          </mxGeometry>
        </mxCell>
        <mxCell id="pmfcGwgIa4C5hmEtUkiJ-102" value="" style="endArrow=none;html=1;rounded=0;strokeColor=#E07A5F;fontSize=12;fontColor=#393C56;startSize=8;endSize=8;curved=1;fillColor=#F2CC8F;startFill=0;entryX=0.437;entryY=1.143;entryDx=0;entryDy=0;exitX=0.5;exitY=0;exitDx=0;exitDy=0;entryPerimeter=0;" edge="1" parent="WIyWlLk6GJQsqaUBKTNV-1" source="pmfcGwgIa4C5hmEtUkiJ-70" target="pmfcGwgIa4C5hmEtUkiJ-65">
          <mxGeometry relative="1" as="geometry">
            <mxPoint x="717" y="230" as="sourcePoint" />
            <mxPoint x="620" y="307" as="targetPoint" />
          </mxGeometry>
        </mxCell>
        <mxCell id="pmfcGwgIa4C5hmEtUkiJ-103" value="+1" style="edgeLabel;resizable=0;html=1;;align=left;verticalAlign=bottom;strokeColor=#E07A5F;fontColor=#393C56;fillColor=#F2CC8F;" connectable="0" vertex="1" parent="pmfcGwgIa4C5hmEtUkiJ-102">
          <mxGeometry x="-1" relative="1" as="geometry">
            <mxPoint x="-17" y="-10" as="offset" />
          </mxGeometry>
        </mxCell>
        <mxCell id="pmfcGwgIa4C5hmEtUkiJ-104" value="+0...*" style="edgeLabel;resizable=0;html=1;;align=right;verticalAlign=bottom;strokeColor=#E07A5F;fontColor=#393C56;fillColor=#F2CC8F;" connectable="0" vertex="1" parent="pmfcGwgIa4C5hmEtUkiJ-102">
          <mxGeometry x="1" relative="1" as="geometry">
            <mxPoint x="42" y="28" as="offset" />
          </mxGeometry>
        </mxCell>
        <mxCell id="pmfcGwgIa4C5hmEtUkiJ-105" value="" style="endArrow=none;html=1;rounded=0;strokeColor=#E07A5F;fontSize=12;fontColor=#393C56;startSize=8;endSize=8;curved=1;fillColor=#F2CC8F;startFill=0;entryX=0.75;entryY=0;entryDx=0;entryDy=0;exitX=0;exitY=0.5;exitDx=0;exitDy=0;" edge="1" parent="WIyWlLk6GJQsqaUBKTNV-1" source="pmfcGwgIa4C5hmEtUkiJ-64" target="zkfFHV4jXpPFQw0GAbJ--6">
          <mxGeometry relative="1" as="geometry">
            <mxPoint x="490" y="288" as="sourcePoint" />
            <mxPoint x="519" y="150" as="targetPoint" />
          </mxGeometry>
        </mxCell>
        <mxCell id="pmfcGwgIa4C5hmEtUkiJ-106" value="+1" style="edgeLabel;resizable=0;html=1;;align=left;verticalAlign=bottom;strokeColor=#E07A5F;fontColor=#393C56;fillColor=#F2CC8F;" connectable="0" vertex="1" parent="pmfcGwgIa4C5hmEtUkiJ-105">
          <mxGeometry x="-1" relative="1" as="geometry">
            <mxPoint x="-17" y="-10" as="offset" />
          </mxGeometry>
        </mxCell>
        <mxCell id="pmfcGwgIa4C5hmEtUkiJ-107" value="+1...*" style="edgeLabel;resizable=0;html=1;;align=right;verticalAlign=bottom;strokeColor=#E07A5F;fontColor=#393C56;fillColor=#F2CC8F;" connectable="0" vertex="1" parent="pmfcGwgIa4C5hmEtUkiJ-105">
          <mxGeometry x="1" relative="1" as="geometry">
            <mxPoint x="42" y="1" as="offset" />
          </mxGeometry>
        </mxCell>
        <mxCell id="pmfcGwgIa4C5hmEtUkiJ-108" value="" style="endArrow=none;html=1;rounded=0;strokeColor=#E07A5F;fontSize=12;fontColor=#393C56;startSize=8;endSize=8;curved=1;fillColor=#F2CC8F;startFill=0;entryX=0.373;entryY=0.007;entryDx=0;entryDy=0;exitX=1;exitY=0.5;exitDx=0;exitDy=0;entryPerimeter=0;" edge="1" parent="WIyWlLk6GJQsqaUBKTNV-1" source="pmfcGwgIa4C5hmEtUkiJ-59" target="pmfcGwgIa4C5hmEtUkiJ-52">
          <mxGeometry relative="1" as="geometry">
            <mxPoint x="700" y="380" as="sourcePoint" />
            <mxPoint x="689" y="242" as="targetPoint" />
          </mxGeometry>
        </mxCell>
        <mxCell id="pmfcGwgIa4C5hmEtUkiJ-109" value="+1" style="edgeLabel;resizable=0;html=1;;align=left;verticalAlign=bottom;strokeColor=#E07A5F;fontColor=#393C56;fillColor=#F2CC8F;" connectable="0" vertex="1" parent="pmfcGwgIa4C5hmEtUkiJ-108">
          <mxGeometry x="-1" relative="1" as="geometry">
            <mxPoint x="10" y="5" as="offset" />
          </mxGeometry>
        </mxCell>
        <mxCell id="pmfcGwgIa4C5hmEtUkiJ-110" value="+0...*" style="edgeLabel;resizable=0;html=1;;align=right;verticalAlign=bottom;strokeColor=#E07A5F;fontColor=#393C56;fillColor=#F2CC8F;" connectable="0" vertex="1" parent="pmfcGwgIa4C5hmEtUkiJ-108">
          <mxGeometry x="1" relative="1" as="geometry">
            <mxPoint x="28" y="-21" as="offset" />
          </mxGeometry>
        </mxCell>
      </root>
    </mxGraphModel>
  </diagram>
</mxfile>
